<svg xmlns="http://www.w3.org/2000/svg" width="20" height="20"><path fill="none" d="M8.329 8.301h3.23v3.23h-3.23z"/><path d="m10.203 2.13-.049 1.67q.362.01.729.068l.251-1.65a8 8 0 0 0-.931-.086zm-.926.024a8 8 0 0 0-.928.137l.342 1.633q.36-.075.723-.106zm2.772.26L11.6 4.02q.353.099.69.238l.642-1.539a8 8 0 0 0-.884-.306zm-4.6.12q-.443.15-.867.352l.722 1.504q.33-.158.678-.275zm6.32.595-.816 1.455q.319.18.613.396l.992-1.342a8 8 0 0 0-.789-.51zm-8.002.21a8 8 0 0 0-.758.55l1.06 1.288q.283-.232.593-.43zm9.504.893-1.137 1.22q.268.25.502.53l1.28-1.07q-.3-.36-.645-.68M4.326 4.52q-.326.337-.608.711l1.334 1.004a6 6 0 0 1 .475-.557zM16.47 5.658l-1.394.918q.2.305.361.633l1.498-.737a7 7 0 0 0-.465-.814m-13.267.348q-.237.406-.422.837l1.535.657q.144-.336.328-.653zM17.297 7.33l-1.573.558q.123.343.2.7l1.63-.356a7 7 0 0 0-.257-.902m-14.83.388q-.135.451-.211.916l1.646.268q.06-.36.164-.709zM17.7 9.15l-1.66.168q.03.297.029.602v.002q0 .223-.016.437l1.664.125q.021-.286.02-.562h-.834l.834-.002q.001-.383-.037-.77m-15.543.408a8 8 0 0 0 .014.934l1.664-.123a6 6 0 0 1-.01-.73zm13.8 1.534a6 6 0 0 1-.18.705l1.585.515q.146-.448.234-.91zm-12.027.01-1.638.312q.09.463.236.91l1.586-.518a6 6 0 0 1-.184-.705zm11.578 1.382q-.152.332-.345.643l1.42.879q.247-.4.443-.827zm-11.126.01-1.516.695q.196.427.445.826l1.416-.88a6 6 0 0 1-.345-.641m10.357 1.238a6 6 0 0 1-.488.543l1.172 1.19q.333-.33.625-.698zm-9.586.006-1.307 1.037q.293.368.627.697l1.168-1.191a6 6 0 0 1-.488-.543m8.543 1.023a6 6 0 0 1-.602.415l.856 1.431a7 7 0 0 0 .773-.53zm-7.498.006-1.025 1.317q.37.288.773.53l.854-1.435a6 6 0 0 1-.602-.412m6.242.748q-.332.15-.683.258l.492 1.596q.446-.139.877-.332zm-4.986.004-.682 1.524q.43.191.877.328l.488-1.594a6 6 0 0 1-.683-.258m1.396.43-.295 1.643q.46.082.932.109l.09-1.666a6 6 0 0 1-.727-.086m2.194 0a6 6 0 0 1-.725.086l.094 1.666q.471-.028.93-.111z" color="#000" font-family="sans-serif" font-weight="400" overflow="visible"/><path d="M11.531 9.916a1.587 1.587 0 0 1-1.587 1.587 1.587 1.587 0 0 1-1.587-1.587A1.587 1.587 0 0 1 9.944 8.33a1.587 1.587 0 0 1 1.587 1.587z"/></svg>