<svg xmlns="http://www.w3.org/2000/svg" width="20" height="20"><path d="M12.05 2a1 1 0 0 0-.706.293l-1.045 1.045a1 1 0 0 0 0 1.414l4.949 4.95a1 1 0 0 0 1.414 0l1.045-1.046a1 1 0 0 0 0-1.414l-4.95-4.949A1 1 0 0 0 12.052 2zM8 8c-1 0-1 1-.5 1.5l1 1-1 1s-.5.5 0 1 1 0 1 0l1-1 1 1c.5.5 1.5.5 1.5-.5V8zm-4 2.004a1 1 0 0 0-.705.295l-.996.996a.996.996 0 0 0 0 1.412l.998 1a1 1 0 0 0 1.414 0l.996-.996a1 1 0 0 0 0-1.414l-1-.998A1 1 0 0 0 4 10.004M7.996 14a1 1 0 0 0-.707.293l-.994.996a1 1 0 0 0 0 1.414l.998.998a.996.996 0 0 0 1.412 0l.996-.996a.996.996 0 0 0 0-1.412l-.998-1A1 1 0 0 0 7.996 14" color="#000" overflow="visible" style="isolation:auto;mix-blend-mode:normal;marker:none"/></svg>