<svg xmlns="http://www.w3.org/2000/svg" width="170" height="170" style="isolation:isolate" viewBox="15 15 170 170"><path fill-rule="evenodd" d="M164.657 73.42a9.45 9.45 0 0 0-9.776-.832l-56.112 27.885c-8.467 4.201-6.198 16.857 3.2 17.856l14.48 1.546c-9.732 10.49-31.347 32.454-31.347 32.454s-7.571 10.445 1.604 17.775c7.82 6.246 17.908-.777 17.908-.777s18.47-25.784 27.313-37.074l4.69 13.786c3.046 8.94 15.879 8.37 18.12-.805l14.87-60.869a9.45 9.45 0 0 0-3.019-9.4 10 10 0 0 0-.955-.711 9.5 9.5 0 0 0-.976-.834" color="#000" font-family="sans-serif" font-weight="400" overflow="visible"/></svg>