<svg xmlns="http://www.w3.org/2000/svg" width="20" height="20"><path d="M1.453 3.393a.91.91 0 0 0-.91.91V16.14c0 .504.406.91.91.91h16.922c.504 0 .91-.406.91-.91V4.303a.91.91 0 0 0-.91-.91zm.662.76h15.418c.51 0 .92.41.92.92V9.96a.92.92 0 0 1-.92.922H2.115a.92.92 0 0 1-.922-.922V5.072c0-.51.412-.92.922-.92" style="opacity:1;fill:#000;fill-opacity:1;stroke:none;stroke-width:1;stroke-linecap:butt;stroke-linejoin:bevel;stroke-miterlimit:4;stroke-dasharray:none;stroke-dashoffset:0;stroke-opacity:.52352941"/></svg>