<svg xmlns="http://www.w3.org/2000/svg" width="20" height="20"><path d="M1.629 1034.872a.91.91 0 0 0-.91.91v11.838c0 .505.405.91.91.91H18.55c.504 0 .91-.405.91-.91v-11.838a.91.91 0 0 0-.91-.91zm.662.76h15.418c.51 0 .92.41.92.92v10.127a.92.92 0 0 1-.92.922H2.291a.92.92 0 0 1-.922-.922v-10.127c0-.51.412-.92.922-.92m7.804 1.268a4.75 4.75 0 0 0-4.449 2.861 4.75 4.75 0 0 0 .967 5.201 4.745 4.745 0 0 0 8.01-2.26l2.04-.16-3.1-5.15-.237.58-2.024 4.99 2.141-.168c-.313 1.024-1.002 1.893-2.03 2.313a3.74 3.74 0 0 1-4.085-.846 3.74 3.74 0 0 1-.764-4.103c.531-1.23 2.438-2.38 3.74-2.194l-.039-1.04a.5.5 0 0 0-.17-.024" style="fill:#000;fill-opacity:1;stroke:none;stroke-width:1;stroke-linecap:butt;stroke-linejoin:bevel;stroke-miterlimit:4;stroke-dasharray:none;stroke-dashoffset:0;stroke-opacity:.523529" transform="translate(0 -1032.362)"/></svg>