<svg xmlns="http://www.w3.org/2000/svg" width="20" height="20"><path d="M1.629 1034.872a.91.91 0 0 0-.91.91v11.838c0 .505.405.91.91.91H18.55c.504 0 .91-.406.91-.91v-11.838a.91.91 0 0 0-.91-.91zm.662.76h15.418c.51 0 .92.41.92.92v10.127a.92.92 0 0 1-.92.921H2.291a.92.92 0 0 1-.922-.921v-10.127c0-.51.412-.92.922-.92m7.799 1.216 7.047 7.38v-7.38zm-7.137 1.825v7.379H10z" style="fill:#000;fill-opacity:1;stroke:none;stroke-width:1;stroke-linecap:butt;stroke-linejoin:bevel;stroke-miterlimit:4;stroke-dasharray:none;stroke-dashoffset:0;stroke-opacity:.523529" transform="translate(0 -1032.362)"/></svg>