<svg xmlns="http://www.w3.org/2000/svg" width="20" height="20"><path d="M1.453 3.393a.91.91 0 0 0-.91.91V16.14c0 .504.406.91.91.91h16.922c.504 0 .91-.406.91-.91V4.303a.91.91 0 0 0-.91-.91zm1.54.832h5.773c.956 0 1.726.77 1.726 1.726v8.668c0 .957-.77 1.727-1.726 1.727H2.992c-.956 0-1.726-.77-1.726-1.727V5.951c0-.956.77-1.726 1.726-1.726" style="opacity:1;fill:#000;fill-opacity:1;stroke:none;stroke-width:1;stroke-linecap:butt;stroke-linejoin:bevel;stroke-miterlimit:4;stroke-dasharray:none;stroke-dashoffset:0;stroke-opacity:.52352941"/></svg>