<svg xmlns="http://www.w3.org/2000/svg" color="#000" viewBox="15 15 170 170">
  <path d="M45.187 24.046c-9.334.25-18.582 5.723-22.404 14.397-1.922 4.338-2.995 9.277-2.178 13.998 1.155 4.888 7.279 7.59 11.655 5.135 3.166-1.538 4.74-5.17 4.441-8.572-.06-3.927 2.916-7.404 6.706-8.227 4.716-1.329 10.892.828 12.177 5.94.688 3.351.152 6.851 1.208 10.165 1.927 8.416 8.572 15.47 16.853 17.909 10.562 3.422 23.395-.134 29.722-9.51 3.33-4.688 4.64-10.495 4.684-16.175.159-4.197 3.789-7.588 7.872-8.01 4.64-.844 10.199 1.814 11.06 6.758.524 3.956.313 8.057 1.792 11.853 2.592 8.228 9.946 14.487 18.331 16.234 10.373 2.433 22.353-1.608 28.1-10.822 3.05-4.92 4.626-10.937 3.82-16.705-1.017-4.827-6.902-7.738-11.322-5.492-3.411 1.41-5.105 5.234-4.832 8.774.035 3.871-2.886 7.317-6.631 8.147-4.718 1.37-10.935-.766-12.238-5.889-.696-3.284-.165-6.713-1.159-9.97-1.854-8.349-8.308-15.43-16.477-17.988-10.65-3.66-23.743-.134-30.164 9.373-3.336 4.709-4.636 10.531-4.686 16.23-.174 4.34-4.083 7.724-8.291 8.004-4.617.673-9.992-2.145-10.676-7.06-.448-3.955-.328-8.041-1.82-11.818-2.664-8.198-10.06-14.376-18.446-16.065a29 29 0 0 0-7.097-.614m0 51.596c-9.336.247-18.578 5.723-22.404 14.393-1.922 4.338-2.995 9.277-2.178 13.998 1.141 4.796 7.07 7.522 11.443 5.246 3.29-1.482 4.968-5.2 4.653-8.683-.043-3.807 2.747-7.254 6.43-8.142 4.693-1.449 10.92.55 12.386 5.616.803 3.343.177 6.86 1.22 10.187 1.857 8.43 8.43 15.553 16.695 18.056 10.605 3.538 23.566 0 29.938-9.44 3.342-4.713 4.645-10.539 4.69-16.241.176-4.265 3.96-7.633 8.1-7.978 4.587-.739 10.004 1.937 10.826 6.813.522 3.874.303 7.888 1.717 11.615 2.505 8.172 9.676 14.487 17.967 16.343 10.402 2.613 22.544-1.298 28.41-10.532 3.154-4.947 4.746-11.046 3.954-16.887-1.016-4.74-6.715-7.673-11.123-5.586-3.526 1.336-5.318 5.24-5.04 8.85.056 3.978-3.03 7.467-6.877 8.222-4.74 1.28-10.899-1.012-12.049-6.168-.596-3.297-.14-6.717-1.155-9.972-1.92-8.336-8.447-15.35-16.635-17.84-10.537-3.5-23.397-.063-29.816 9.254-3.436 4.742-4.779 10.651-4.822 16.428-.174 4.268-3.958 7.637-8.098 7.98-4.589.736-10.006-1.938-10.829-6.814-.522-3.874-.3-7.889-1.715-11.613-2.522-8.25-9.808-14.595-18.185-16.396a28.5 28.5 0 0 0-7.503-.71m0 51.589c-9.336.249-18.577 5.728-22.404 14.397-1.922 4.338-2.995 9.277-2.178 13.998 1.148 4.8 7.089 7.525 11.464 5.236 3.272-1.496 4.95-5.196 4.632-8.677-.06-3.907 2.892-7.376 6.663-8.21 4.714-1.352 10.907.789 12.212 5.9.702 3.357.155 6.87 1.217 10.194 1.928 8.414 8.571 15.468 16.852 17.907 10.562 3.421 23.391-.136 29.723-9.51 3.346-4.71 4.645-10.539 4.692-16.241.174-4.354 4.105-7.732 8.322-8.01 4.613-.657 9.968 2.167 10.65 7.08.438 3.948.328 8.03 1.814 11.8 2.719 8.385 10.396 14.642 19.001 16.175 10.253 2.117 21.901-2.039 27.468-11.142 2.974-4.888 4.502-10.824 3.719-16.526-1.009-4.749-6.71-7.668-11.12-5.596-3.426 1.31-5.3 5.08-5.03 8.628.1 3.794-2.57 7.322-6.242 8.268-4.783 1.6-11.279-.494-12.636-5.754-.708-3.363-.158-6.878-1.22-10.208-1.927-8.416-8.572-15.468-16.854-17.907-10.562-3.422-23.397.134-29.725 9.51-3.34 4.713-4.645 10.539-4.69 16.24-.174 4.266-3.96 7.634-8.098 7.984-4.589.739-10.004-1.943-10.829-6.82-.522-3.872-.302-7.887-1.715-11.613-2.527-8.245-9.811-14.588-18.185-16.395a28.5 28.5 0 0 0-7.503-.708"/>
</svg>
