<svg xmlns="http://www.w3.org/2000/svg" width="170" height="170" viewBox="15 15 170 170"><path transform="translate(-33.909 -66.778)scale(1.73956)" d="M45.469 52.211c-5.366.144-10.682 3.29-12.879 8.276-1.105 2.494-1.722 5.333-1.252 8.047.664 2.81 4.184 4.363 6.7 2.952 1.82-.884 2.725-2.972 2.553-4.928-.035-2.257 1.676-4.256 3.855-4.729 2.711-.764 6.261.476 7 3.414.395 1.927.087 3.939.694 5.844 1.108 4.838 4.928 8.893 9.688 10.295 6.072 1.967 13.449-.077 17.086-5.467 1.915-2.695 2.668-6.033 2.693-9.298.091-2.413 2.178-4.362 4.525-4.605 2.668-.485 5.863 1.043 6.358 3.885.301 2.274.18 4.632 1.03 6.814 1.49 4.73 5.718 8.328 10.538 9.332 5.963 1.399 12.85-.924 16.153-6.221 1.754-2.828 2.66-6.287 2.196-9.603-.584-2.775-3.967-4.448-6.508-3.157-1.961.81-2.935 3.009-2.778 5.044.02 2.225-1.659 4.206-3.812 4.683-2.712.788-6.286-.44-7.035-3.385-.4-1.888-.095-3.859-.666-5.732-1.066-4.799-4.776-8.87-9.472-10.34-6.122-2.104-13.649-.077-17.34 5.388-1.918 2.707-2.665 6.054-2.694 9.33-.1 2.495-2.347 4.44-4.766 4.601-2.654.387-5.744-1.233-6.137-4.058-.258-2.274-.189-4.623-1.046-6.794-1.532-4.713-5.784-8.264-10.604-9.235a16.6 16.6 0 0 0-4.08-.353m0 29.66c-5.367.142-10.68 3.29-12.879 8.274-1.105 2.494-1.722 5.333-1.252 8.047.656 2.757 4.064 4.324 6.578 3.016 1.891-.852 2.856-2.989 2.675-4.992-.025-2.188 1.579-4.17 3.696-4.68 2.698-.833 6.278.316 7.12 3.228.462 1.922.102 3.944.702 5.856 1.067 4.846 4.846 8.941 9.597 10.38 6.096 2.034 13.547 0 17.21-5.427 1.921-2.709 2.67-6.058 2.696-9.336.101-2.452 2.276-4.388 4.656-4.586 2.637-.425 5.751 1.113 6.224 3.916.3 2.227.174 4.535.987 6.677 1.44 4.698 5.562 8.328 10.328 9.395 5.98 1.502 12.96-.746 16.332-6.054 1.813-2.844 2.728-6.35 2.273-9.708-.584-2.725-3.86-4.411-6.394-3.211-2.027.768-3.057 3.012-2.897 5.088.032 2.286-1.742 4.292-3.954 4.726-2.725.736-6.265-.582-6.926-3.546-.343-1.895-.081-3.861-.664-5.732-1.104-4.792-4.856-8.824-9.563-10.256-6.057-2.012-13.45-.036-17.14 5.32-1.975 2.726-2.747 6.123-2.772 9.444-.1 2.453-2.275 4.39-4.655 4.587-2.638.423-5.752-1.114-6.225-3.917-.3-2.227-.173-4.535-.986-6.676-1.45-4.742-5.638-8.39-10.454-9.425-1.41-.33-2.866-.46-4.313-.408m0 29.656c-5.367.143-10.679 3.293-12.879 8.276-1.105 2.494-1.722 5.333-1.252 8.047.66 2.76 4.075 4.326 6.59 3.01 1.881-.86 2.846-2.987 2.663-4.988-.035-2.246 1.662-4.24 3.83-4.72 2.71-.777 6.27.454 7.02 3.392.404 1.93.089 3.949.7 5.86 1.108 4.837 4.927 8.892 9.687 10.294 6.072 1.967 13.447-.078 17.087-5.467 1.923-2.707 2.67-6.058 2.697-9.336.1-2.503 2.36-4.445 4.784-4.605 2.652-.377 5.73 1.246 6.122 4.07.252 2.27.189 4.616 1.043 6.784 1.563 4.82 5.976 8.417 10.923 9.298 5.894 1.217 12.59-1.172 15.79-6.405 1.71-2.81 2.588-6.222 2.138-9.5-.58-2.73-3.857-4.408-6.392-3.217-1.97.753-3.047 2.92-2.892 4.96.058 2.181-1.477 4.209-3.588 4.753-2.75.92-6.484-.284-7.264-3.308-.407-1.933-.091-3.954-.702-5.868-1.107-4.838-4.927-8.892-9.688-10.294-6.072-1.967-13.45.077-17.088 5.467-1.92 2.709-2.67 6.058-2.696 9.336-.1 2.452-2.276 4.388-4.655 4.589-2.638.425-5.751-1.117-6.225-3.92-.3-2.226-.174-4.534-.986-6.676-1.453-4.74-5.64-8.386-10.454-9.425a16.4 16.4 0 0 0-4.313-.407" color="#000" overflow="visible"/></svg>
