<svg xmlns="http://www.w3.org/2000/svg" width="20" height="20" viewBox="0 0 20 20"><path fill="none" d="M8.329 8.301h3.23v3.23h-3.23z"/><path d="M10.203 2.13L10.154 3.8c.241.007.485.03.729.068l.251-1.65a7.637 7.637 0 0 0-.931-.086zm-.926.024a7.536 7.536 0 0 0-.928.137l.342 1.633c.24-.05.482-.086.723-.106zm2.772.26L11.6 4.02c.235.066.466.145.69.238l.642-1.539a7.49 7.49 0 0 0-.884-.306zm-4.6.12c-.295.1-.585.217-.867.352l.722 1.504c.22-.105.446-.197.678-.275zm6.32.595l-.816 1.455c.212.119.417.252.613.396l.992-1.342a7.516 7.516 0 0 0-.789-.51zm-8.002.21c-.264.168-.516.351-.758.55l1.06 1.288c.188-.154.387-.299.593-.43zm9.504.893l-1.137 1.22c.178.167.346.343.502.53l1.28-1.07c-.2-.24-.416-.466-.645-.68zM4.326 4.52c-.217.225-.42.462-.608.711l1.334 1.004c.147-.195.306-.381.475-.557zM16.47 5.658l-1.394.918c.134.203.254.415.361.633l1.498-.737a7.441 7.441 0 0 0-.465-.814zm-13.267.348c-.158.27-.299.55-.422.837l1.535.657c.096-.224.205-.442.328-.653zM17.297 7.33l-1.573.558c.082.229.148.462.2.7l1.63-.356a7.378 7.378 0 0 0-.257-.902zm-14.83.388c-.09.3-.16.607-.211.916l1.646.268c.04-.24.095-.476.164-.709zM17.7 9.15l-1.66.168c.02.198.029.399.029.602v.002c0 .148-.005.295-.016.437l1.664.125c.015-.19.02-.378.02-.562h-.834l.834-.002c0-.255-.011-.512-.037-.77zm-15.543.408a7.67 7.67 0 0 0 .014.934l1.664-.123a5.998 5.998 0 0 1-.01-.73zm13.8 1.534a5.737 5.737 0 0 1-.18.705l1.585.515c.097-.298.176-.602.234-.91zm-12.027.01l-1.638.312c.059.308.139.612.236.91l1.586-.518a5.745 5.745 0 0 1-.184-.705zm11.578 1.382c-.1.221-.217.436-.345.643l1.42.879c.164-.266.313-.542.443-.827zm-11.126.01l-1.516.695c.13.285.28.56.445.826l1.416-.88a5.788 5.788 0 0 1-.345-.641zm10.357 1.238a5.914 5.914 0 0 1-.488.543l1.172 1.19c.222-.22.43-.453.625-.698zm-9.586.006l-1.307 1.037c.195.245.404.478.627.697l1.168-1.191a5.885 5.885 0 0 1-.488-.543zm8.543 1.023c-.192.15-.393.29-.602.415l.856 1.431c.268-.16.527-.337.773-.53zm-7.498.006l-1.025 1.317c.246.192.504.369.773.53l.854-1.435a5.857 5.857 0 0 1-.602-.412zm6.242.748c-.221.1-.45.186-.683.258l.492 1.596c.297-.092.59-.204.877-.332zm-4.986.004l-.682 1.524c.286.128.579.236.877.328l.488-1.594a5.892 5.892 0 0 1-.683-.258zm1.396.43l-.295 1.643c.305.054.618.092.932.109l.09-1.666a5.958 5.958 0 0 1-.727-.086zm2.194 0a5.886 5.886 0 0 1-.725.086l.094 1.666c.314-.018.624-.056.93-.111z" color="#000" font-weight="400" font-family="sans-serif" white-space="normal" overflow="visible"/><path d="M11.531 9.916a1.587 1.587 0 0 1-1.587 1.587 1.587 1.587 0 0 1-1.587-1.587A1.587 1.587 0 0 1 9.944 8.33a1.587 1.587 0 0 1 1.587 1.587z"/></svg>
