<svg xmlns="http://www.w3.org/2000/svg" style="isolation:isolate" viewBox="15 15 170 170" width="170" height="170"><path d="M164.657 73.42a9.447 9.447 0 0 0-9.776-.832l-56.112 27.885c-8.467 4.201-6.198 16.857 3.2 17.856l14.48 1.546c-9.732 10.49-31.347 32.454-31.347 32.454s-7.571 10.445 1.604 17.775c7.82 6.246 17.908-.777 17.908-.777s18.47-25.784 27.313-37.074l4.69 13.786c3.046 8.94 15.879 8.37 18.12-.805l14.87-60.869a9.447 9.447 0 0 0-3.019-9.4 9.446 9.446 0 0 0-.955-.711 9.447 9.447 0 0 0-.976-.834z" color="#000" font-weight="400" font-family="sans-serif" white-space="normal" overflow="visible" fill-rule="evenodd"/><path d="M23.678 15.268c-4.26 0-7.844 3.584-7.844 7.843v37.094c0 4.26 3.585 7.844 7.844 7.844h11.94V131.8H23.33c-4.259 0-7.844 3.585-7.844 7.844v37.091c0 4.26 3.585 7.844 7.844 7.844h37.092c4.259 0 7.844-3.585 7.844-7.844v-37.091c0-4.26-3.585-7.844-7.844-7.844h-9.805V68.049H60.77c4.259 0 7.843-3.585 7.843-7.844V48.957h64.448v11.248c0 4.26 3.584 7.844 7.843 7.844h37.092c4.26 0 7.844-3.585 7.844-7.844V23.111c0-4.259-3.585-7.843-7.844-7.843h-37.092c-4.259 0-7.843 3.584-7.843 7.843v10.846H68.613V23.111c0-4.259-3.584-7.843-7.843-7.843H23.678zm2.156 10h32.78v32.78h-32.78v-32.78zm117.227 0h32.779v32.78h-32.78v-32.78zM25.486 141.8h32.78v32.78h-32.78V141.8z" color="#000" font-weight="400" font-family="sans-serif" white-space="normal" overflow="visible"/></svg>
