<svg xmlns="http://www.w3.org/2000/svg" width="20" height="20"><defs><linearGradient id="a"><stop offset="0"/><stop offset="1" stop-opacity="0"/></linearGradient></defs><path style="isolation:auto;mix-blend-mode:normal;marker:none" d="M12.006 2a.996.996 0 0 0-.707.293l-.996.996a.998.998 0 0 0 0 1.414l1 .998a.996.996 0 0 0 1.412 0l.996-.996a.998.998 0 0 0 0-1.414l-.998-.998A.996.996 0 0 0 12.006 2zm3.996 3.994c-.256 0-.511.1-.707.295l-.996.996a.996.996 0 0 0 0 1.412l.998 1a.998.998 0 0 0 1.414 0l.996-.996a.998.998 0 0 0 0-1.414l-.998-.998a.998.998 0 0 0-.707-.295zM9 7c-1 0-1 1-.5 1.5l1 1-1 1s-.5.5 0 1 1 0 1 0l1-1 1 1c.5.5 1.5.5 1.5-.5V7H9zm-4.951 3.002a.996.996 0 0 0-.707.293l-1.043 1.043a.998.998 0 0 0 0 1.414l4.949 4.95a.998.998 0 0 0 1.414 0l1.043-1.044a.998.998 0 0 0 0-1.414l-4.95-4.95a.996.996 0 0 0-.706-.292z" color="#000" overflow="visible" stroke-width="2"/></svg>