<?xml version="1.0" encoding="UTF-8" standalone="no"?>
<svg
   xmlns:dc="http://purl.org/dc/elements/1.1/"
   xmlns:cc="http://creativecommons.org/ns#"
   xmlns:rdf="http://www.w3.org/1999/02/22-rdf-syntax-ns#"
   xmlns:svg="http://www.w3.org/2000/svg"
   xmlns="http://www.w3.org/2000/svg"
   version="1.1"
   id="svg4196"
   height="170"
   width="170"
   viewBox="15 15 170 170"
   style="isolation:isolate">
  <metadata
     id="metadata4208">
    <rdf:RDF>
      <cc:Work
         rdf:about="">
        <dc:format>image/svg+xml</dc:format>
        <dc:type
           rdf:resource="http://purl.org/dc/dcmitype/StillImage" />
        <dc:title></dc:title>
      </cc:Work>
    </rdf:RDF>
  </metadata>
  <defs
     id="defs4206" />
  <g
     id="Group">
    <path
       id="path4199"
       transform="translate(15,15)"
       d="M 85.035156 0 A 5.0005 5.0005 0 0 0 80.527344 2.7636719 L 0.52734375 162.76367 A 5.0005 5.0005 0 0 0 7.2363281 169.47266 L 85 130.58984 L 162.76367 169.47266 A 5.0005 5.0005 0 0 0 169.47266 162.76367 L 89.472656 2.7636719 A 5.0005 5.0005 0 0 0 85.035156 0 z M 85 16.181641 L 153.81836 153.81836 L 87.296875 120.55859 L 87.236328 120.52734 L 87.236328 120.53125 A 5.0005 5.0005 0 0 0 85 120 L 85 16.181641 z "
       style="color:#000000;font-style:normal;font-variant:normal;font-weight:normal;font-stretch:normal;font-size:medium;line-height:normal;font-family:sans-serif;text-indent:0;text-align:start;text-decoration:none;text-decoration-line:none;text-decoration-style:solid;text-decoration-color:#000000;letter-spacing:normal;word-spacing:normal;text-transform:none;direction:ltr;block-progression:tb;writing-mode:lr-tb;baseline-shift:baseline;text-anchor:start;white-space:normal;clip-rule:nonzero;display:inline;overflow:visible;visibility:visible;opacity:1;isolation:auto;mix-blend-mode:normal;color-interpolation:sRGB;color-interpolation-filters:linearRGB;solid-color:#000000;solid-opacity:1;fill:#000000;fill-opacity:1;fill-rule:nonzero;stroke:none;stroke-width:10;stroke-linecap:round;stroke-linejoin:round;stroke-miterlimit:3;stroke-dasharray:none;stroke-dashoffset:0;stroke-opacity:1;color-rendering:auto;image-rendering:auto;shape-rendering:auto;text-rendering:auto;enable-background:accumulate" />
    <g
       id="Layer 1" />
    <path
       transform="translate(15,15)"
       id="path4135"
       d="m 119.45643,136.64844 c -18.38848,-9.20525 -33.661622,-16.73682 -33.940324,-16.73682 -0.445513,0 -0.504445,-6.24862 -0.487809,-51.722655 l 0.01892,-51.722655 34.158953,68.22261 c 18.78742,37.52244 34.16747,68.33802 34.17788,68.47909 0.0104,0.14106 -0.0965,0.24765 -0.23756,0.23686 -0.14106,-0.0108 -15.30159,-7.55117 -33.69006,-16.75643 z"
       style="opacity:1;fill:#ffffff;fill-opacity:1;stroke:none;stroke-width:5.12951946;stroke-linecap:round;stroke-linejoin:round;stroke-miterlimit:4;stroke-dasharray:none;stroke-opacity:1" />
  </g>
</svg>
