<?xml version="1.0" standalone="no"?>
<!DOCTYPE svg PUBLIC "-//W3C//DTD SVG 20010904//EN"
 "http://www.w3.org/TR/2001/REC-SVG-20010904/DTD/svg10.dtd">
<svg version="1.0" xmlns="http://www.w3.org/2000/svg"
 width="700.000000pt" height="700.000000pt" viewBox="0 0 700.000000 700.000000"
 preserveAspectRatio="xMidYMid meet">
<metadata>
Created by potrace 1.11, written by Peter Selinger 2001-2013
</metadata>
<g transform="translate(0.000000,700.000000) scale(0.100000,-0.100000)"
fill="#000000" stroke="none">
<path d="M3297 6724 c-2 -2 -24 -7 -48 -10 -24 -3 -55 -7 -69 -10 -14 -2 -41
-7 -60 -10 -133 -21 -374 -95 -515 -158 -370 -167 -669 -405 -922 -736 -59
-77 -123 -176 -123 -190 0 -6 -3 -10 -7 -10 -5 0 -13 -10 -19 -23 -96 -189
-134 -269 -134 -280 0 -7 -4 -17 -9 -22 -21 -24 -93 -267 -120 -406 -19 -97
-24 -131 -37 -248 -7 -55 -7 -398 -1 -409 3 -4 8 -41 12 -82 4 -41 9 -77 10
-80 2 -3 6 -26 10 -50 10 -73 53 -235 90 -339 85 -244 148 -361 409 -756 138
-210 378 -565 391 -579 6 -6 31 -42 57 -81 41 -63 286 -419 368 -535 34 -48
199 -288 333 -482 137 -199 195 -283 378 -549 97 -140 192 -278 212 -307 l36
-52 44 62 c24 35 334 484 689 998 355 514 673 976 707 1025 277 399 552 825
621 965 127 253 210 527 235 770 3 30 8 73 10 95 6 50 6 317 1 370 -19 191
-44 317 -93 485 -137 461 -452 910 -833 1185 -30 22 -56 43 -58 47 -2 5 -7 8
-12 8 -5 0 -41 22 -82 48 -69 46 -262 146 -357 185 -118 49 -341 114 -451 131
-19 3 -46 8 -60 10 -14 3 -43 8 -65 12 -45 7 -531 14 -538 8z m408 -449 c706
-57 1337 -540 1585 -1215 119 -321 145 -684 74 -1024 -86 -412 -323 -802 -644
-1058 -41 -33 -84 -67 -95 -76 -39 -32 -181 -116 -265 -157 -138 -68 -344
-137 -477 -159 -18 -4 -48 -9 -65 -12 -139 -24 -398 -24 -551 1 -198 31 -346
76 -515 156 -46 21 -85 39 -87 39 -2 0 -48 28 -102 61 -356 222 -620 542 -768
930 -38 99 -82 257 -90 326 -4 26 -8 55 -10 63 -23 89 -24 429 -2 535 3 11 8
40 12 65 21 137 90 348 164 497 203 414 592 764 1017 918 104 38 254 79 329
90 28 4 61 10 75 12 14 2 66 6 115 10 50 3 91 6 93 7 3 4 119 -1 207 -9z"/>
<path d="M3538 5786 c-1 -2 -46 -6 -98 -9 -101 -7 -104 -7 -219 -33 -121 -26
-266 -85 -384 -156 l-68 -41 33 -34 c18 -19 191 -193 385 -387 l352 -352 383
383 383 384 -28 22 c-76 63 -355 176 -472 192 -22 3 -46 8 -54 11 -7 2 -52 7
-100 10 -47 3 -91 7 -98 9 -6 2 -13 2 -15 1z"/>
<path d="M2383 5142 c-74 -114 -162 -332 -178 -442 -4 -24 -8 -47 -10 -51 -7
-11 -19 -161 -19 -239 1 -153 34 -343 83 -465 26 -65 116 -244 135 -267 l21
-28 385 385 384 384 -385 385 -385 385 -31 -47z"/>
<path d="M4279 4804 l-386 -386 386 -384 385 -385 33 53 c81 127 159 325 179
457 3 20 10 56 14 81 14 71 5 365 -13 445 -37 165 -102 326 -184 458 l-29 46
-385 -385z"/>
<path d="M3155 3680 c-209 -210 -381 -382 -383 -384 -5 -6 88 -62 164 -100 98
-49 230 -95 324 -113 155 -30 355 -36 475 -14 33 6 74 13 90 16 112 19 318
104 432 177 l52 33 -383 383 c-211 210 -385 382 -387 382 -3 0 -175 -171 -384
-380z"/>
</g>
</svg>
