<svg xmlns="http://www.w3.org/2000/svg" width="64" height="64"><path d="M0 0l38.86-38.821" fill="none" stroke="#231f20" stroke-width=".3" transform="matrix(1.63785 0 0 1.63775 .178 63.826)"/><path d="M0 0l36.271-36.233" fill="none" stroke="#231f20" stroke-width=".3" transform="matrix(1.63785 0 0 1.63775 4.42 63.826)"/><path d="M0 0l33.681-33.646" fill="none" stroke="#231f20" stroke-width=".3" transform="matrix(1.63785 0 0 1.63775 8.662 63.826)"/><path d="M0 0l31.091-31.058" fill="none" stroke="#231f20" stroke-width=".3" transform="matrix(1.63785 0 0 1.63775 12.904 63.826)"/><path d="M0 0l28.5-28.47" fill="none" stroke="#231f20" stroke-width=".3" transform="matrix(1.63785 0 0 1.63775 17.147 63.826)"/><path d="M0 0l25.91-25.883" fill="none" stroke="#231f20" stroke-width=".3" transform="matrix(1.63785 0 0 1.63775 21.389 63.826)"/><path d="M0 0l23.319-23.295" fill="none" stroke="#231f20" stroke-width=".3" transform="matrix(1.63785 0 0 1.63775 25.632 63.826)"/><path d="M0 0l20.73-20.708" fill="none" stroke="#231f20" stroke-width=".3" transform="matrix(1.63785 0 0 1.63775 29.874 63.826)"/><path d="M0 0l18.139-18.12" fill="none" stroke="#231f20" stroke-width=".3" transform="matrix(1.63785 0 0 1.63775 34.117 63.826)"/><path d="M0 0l15.549-15.533" fill="none" stroke="#231f20" stroke-width=".3" transform="matrix(1.63785 0 0 1.63775 38.359 63.826)"/><path d="M0 0l12.958-12.944" fill="none" stroke="#231f20" stroke-width=".3" transform="matrix(1.63785 0 0 1.63775 42.602 63.826)"/><path d="M0 0l10.368-10.357" fill="none" stroke="#231f20" stroke-width=".3" transform="matrix(1.63785 0 0 1.63775 46.844 63.826)"/><path d="M0 0l7.777-7.77" fill="none" stroke="#231f20" stroke-width=".3" transform="matrix(1.63785 0 0 1.63775 51.088 63.826)"/><path d="M0 0l5.188-5.182" fill="none" stroke="#231f20" stroke-width=".3" transform="matrix(1.63785 0 0 1.63775 55.33 63.826)"/><path d="M0 0l2.598-2.595" fill="none" stroke="#231f20" stroke-width=".3" transform="matrix(1.63785 0 0 1.63775 59.571 63.826)"/><path d="M0 0l36.314-36.277" fill="none" stroke="#231f20" stroke-width=".3" transform="matrix(1.63785 0 0 1.63775 .174 59.59)"/><path d="M0 0l33.724-33.688" fill="none" stroke="#231f20" stroke-width=".3" transform="matrix(1.63785 0 0 1.63775 .174 55.35)"/><path d="M0 0l31.132-31.1" fill="none" stroke="#231f20" stroke-width=".3" transform="matrix(1.63785 0 0 1.63775 .174 51.11)"/><path d="M0 0l28.54-28.511" fill="none" stroke="#231f20" stroke-width=".3" transform="matrix(1.63785 0 0 1.63775 .174 46.87)"/><path d="M0 0l25.948-25.922" fill="none" stroke="#231f20" stroke-width=".3" transform="matrix(1.63785 0 0 1.63775 .174 42.63)"/><path d="M0 0l23.357-23.333" fill="none" stroke="#231f20" stroke-width=".3" transform="matrix(1.63785 0 0 1.63775 .174 38.39)"/><path d="M0 0l20.766-20.744" fill="none" stroke="#231f20" stroke-width=".3" transform="matrix(1.63785 0 0 1.63775 .174 34.15)"/><path d="M0 0l18.174-18.154" fill="none" stroke="#231f20" stroke-width=".3" transform="matrix(1.63785 0 0 1.63775 .174 29.91)"/><path d="M0 0l15.582-15.565" fill="none" stroke="#231f20" stroke-width=".3" transform="matrix(1.63785 0 0 1.63775 .174 25.67)"/><path d="M0 0l12.99-12.977" fill="none" stroke="#231f20" stroke-width=".3" transform="matrix(1.63785 0 0 1.63775 .174 21.43)"/><path d="M0 0l10.398-10.388" fill="none" stroke="#231f20" stroke-width=".3" transform="matrix(1.63785 0 0 1.63775 .174 17.19)"/><path d="M0 0l7.808-7.799" fill="none" stroke="#231f20" stroke-width=".3" transform="matrix(1.63785 0 0 1.63775 .174 12.95)"/><path d="M0 0l5.216-5.21" fill="none" stroke="#231f20" stroke-width=".3" transform="matrix(1.63785 0 0 1.63775 .174 8.71)"/><path d="M0 0l2.624-2.621" fill="none" stroke="#231f20" stroke-width=".3" transform="matrix(1.63785 0 0 1.63775 .174 4.47)"/></svg>