<?xml version="1.0" encoding="utf-8"?>
<!-- Generator: Adobe Illustrator 19.1.0, SVG Export Plug-In . SVG Version: 6.00 Build 0)  -->
<svg version="1.1" id="Layer_1" width="200px" height="200px" xmlns="http://www.w3.org/2000/svg" xmlns:xlink="http://www.w3.org/1999/xlink" x="0px" y="0px"
	 viewBox="0 0 85.4 85.4" style="enable-background:new 0 0 85.4 85.4;" xml:space="preserve">
<style type="text/css">
	.st0{fill:#FFFFFF;}
	.st1{stroke:#FFFFFF;stroke-width:3;stroke-miterlimit:10;}
	.st2{fill:#FFFFFF;stroke:#000000;stroke-width:2;stroke-miterlimit:10;}
	.st3{fill:none;}
	.st4{display:none;}
	.st5{display:inline;fill:none;stroke:#000000;stroke-miterlimit:10;}
	.st6{fill:#EEF4F0;}
</style>
<g>
	<g>
		<polygon points="42.7,62.4 3.4,82.1 42.7,3.4 82.1,82.1 		"/>
		<path class="st0" d="M42.7,6.7l36,72l-36-18l-36,18L42.7,6.7 M42.7,0L40,5.4l-36,72l-4,8l8-4l34.7-17.3l34.7,17.3l8,4l-4-8l-36-72
			L42.7,0L42.7,0z"/>
	</g>
	<g>
		<path class="st0" d="M33.1,33.1h5.8l7.6,11.1V33.1h5.9v20.1h-5.9l-7.5-11v11h-5.8V33.1z"/>
	</g>
</g>
</svg>
