  <svg xmlns:i="&amp;ns_ai;" xmlns="http://www.w3.org/2000/svg" xmlns:xlink="http://www.w3.org/1999/xlink" width="200" height="200" viewBox="0 0 200 200">
    <switch transform="translate(0 -8)">
      <g i:extraneous="self">
        <g fill="#15b0f8">
          <path d="M123.094 49.583c-6.257-4.294-13.832-6.809-22.021-6.809a38.726 38.726 0 0 0-21.991 6.81l21.99 22.022 22.022-22.023zM68.93 59.736c-4.294 6.257-6.809 13.832-6.809 22.022a38.907 38.907 0 0 0 6.81 22.022l22.02-22.022-22.02-22.022zm64.316 0l-22.02 22.021 22.021 22.022a38.904 38.904 0 0 0 6.81-22.022c-.002-8.189-2.516-15.764-6.81-22.021zM79.083 113.9c6.255 4.325 13.831 6.84 21.99 6.84 8.19 0 15.764-2.515 22.022-6.84l-22.021-22.02-21.991 22.02z" />
          <path d="M45.865 118.073C38.75 107.276 35.007 94.7 35.007 81.758c0-36.53 29.597-66.126 66.127-66.126 36.499 0 66.096 29.597 66.096 66.126 0 12.944-3.742 25.52-10.858 36.315-3.65 5.98-7.76 11.654-11.562 17.543l-.032.03-43.644 63.214-43.646-63.213-.03-.03c-3.802-5.89-7.913-11.564-11.593-17.544zm55.27-89.651c29.443 0 53.306 23.892 53.306 53.336 0 29.445-23.863 53.308-53.307 53.308-29.445 0-53.337-23.863-53.337-53.308 0-29.444 23.894-53.336 53.337-53.336z" clip-rule="evenodd" fill-rule="evenodd" />
        </g>
      </g>
    </switch>
  </svg>