<?xml version="1.0" encoding="UTF-8" standalone="no"?>
<!-- Created with Inkscape (http://www.inkscape.org/) -->

<svg
   xmlns:dc="http://purl.org/dc/elements/1.1/"
   xmlns:cc="http://creativecommons.org/ns#"
   xmlns:rdf="http://www.w3.org/1999/02/22-rdf-syntax-ns#"
   xmlns:svg="http://www.w3.org/2000/svg"
   xmlns="http://www.w3.org/2000/svg"
   xmlns:sodipodi="http://sodipodi.sourceforge.net/DTD/sodipodi-0.dtd"
   xmlns:inkscape="http://www.inkscape.org/namespaces/inkscape"
   width="20"
   height="20"
   viewBox="0 0 20 20"
   id="svg2"
   version="1.1"
   inkscape:version="0.91 r13725"
   sodipodi:docname="resize_auto_half_height.svg">
  <defs
     id="defs4" />
  <sodipodi:namedview
     id="base"
     pagecolor="#ffffff"
     bordercolor="#666666"
     borderopacity="1.0"
     inkscape:pageopacity="0.0"
     inkscape:pageshadow="2"
     inkscape:zoom="27.63762"
     inkscape:cx="10.711781"
     inkscape:cy="10.150952"
     inkscape:document-units="px"
     inkscape:current-layer="layer1"
     showgrid="false"
     units="px"
     inkscape:window-width="1440"
     inkscape:window-height="855"
     inkscape:window-x="334"
     inkscape:window-y="1463"
     inkscape:window-maximized="1" />
  <metadata
     id="metadata7">
    <rdf:RDF>
      <cc:Work
         rdf:about="">
        <dc:format>image/svg+xml</dc:format>
        <dc:type
           rdf:resource="http://purl.org/dc/dcmitype/StillImage" />
        <dc:title></dc:title>
      </cc:Work>
    </rdf:RDF>
  </metadata>
  <g
     inkscape:label="Layer 1"
     inkscape:groupmode="layer"
     id="layer1"
     transform="translate(0,-1032.3622)">
    <path
       style="opacity:1;fill:#000000;fill-opacity:1;stroke:none;stroke-width:1;stroke-linecap:butt;stroke-linejoin:bevel;stroke-miterlimit:4;stroke-dasharray:none;stroke-dashoffset:0;stroke-opacity:0.52352941"
       d="M 1.453125 3.3925781 C 0.94864576 3.3925781 0.54296875 3.7982551 0.54296875 4.3027344 L 0.54296875 16.140625 C 0.54296875 16.645104 0.94864576 17.050781 1.453125 17.050781 L 18.375 17.050781 C 18.879479 17.050781 19.285156 16.645104 19.285156 16.140625 L 19.285156 4.3027344 C 19.285156 3.7982551 18.879479 3.3925781 18.375 3.3925781 L 1.453125 3.3925781 z M 2.1152344 4.1523438 L 17.533203 4.1523438 C 18.043166 4.1523438 18.453125 4.5623031 18.453125 5.0722656 L 18.453125 9.9609375 C 18.453125 10.4709 18.043166 10.882812 17.533203 10.882812 L 2.1152344 10.882812 C 1.6052719 10.882812 1.1933594 10.4709 1.1933594 9.9609375 L 1.1933594 5.0722656 C 1.1933594 4.5623031 1.6052719 4.1523438 2.1152344 4.1523438 z "
       transform="translate(0,1032.3622)"
       id="rect4136" />
  </g>
</svg>
