<?xml version="1.0" encoding="UTF-8" standalone="no"?>
<!-- Generator: Gravit.io -->

<svg
   xmlns:dc="http://purl.org/dc/elements/1.1/"
   xmlns:cc="http://creativecommons.org/ns#"
   xmlns:rdf="http://www.w3.org/1999/02/22-rdf-syntax-ns#"
   xmlns:svg="http://www.w3.org/2000/svg"
   xmlns="http://www.w3.org/2000/svg"
   xmlns:sodipodi="http://sodipodi.sourceforge.net/DTD/sodipodi-0.dtd"
   xmlns:inkscape="http://www.inkscape.org/namespaces/inkscape"
   style="isolation:isolate"
   viewBox="15 15 170 170"
   width="170"
   height="170"
   id="svg4196"
   version="1.1"
   inkscape:version="0.91 r13725"
   sodipodi:docname="edit-vector.svg">
  <metadata
     id="metadata4208">
    <rdf:RDF>
      <cc:Work
         rdf:about="">
        <dc:format>image/svg+xml</dc:format>
        <dc:type
           rdf:resource="http://purl.org/dc/dcmitype/StillImage" />
        <dc:title />
      </cc:Work>
    </rdf:RDF>
  </metadata>
  <defs
     id="defs4206" />
  <sodipodi:namedview
     pagecolor="#ffffff"
     bordercolor="#666666"
     borderopacity="1"
     objecttolerance="10"
     gridtolerance="10"
     guidetolerance="10"
     inkscape:pageopacity="0"
     inkscape:pageshadow="2"
     inkscape:window-width="1440"
     inkscape:window-height="851"
     id="namedview4204"
     showgrid="false"
     inkscape:zoom="3.5575022"
     inkscape:cx="104.11859"
     inkscape:cy="63.561897"
     inkscape:window-x="341"
     inkscape:window-y="1462"
     inkscape:window-maximized="0"
     inkscape:current-layer="Group"
     inkscape:object-nodes="true"
     inkscape:object-paths="true"
     inkscape:snap-bbox="true"
     inkscape:bbox-nodes="true"
     inkscape:snap-intersection-paths="true"
     inkscape:snap-global="false"
     inkscape:snap-object-midpoints="false"
     inkscape:snap-center="true"
     showguides="true"
     inkscape:guide-bbox="true"
     inkscape:snap-midpoints="true">
    <sodipodi:guide
       position="-132.99493,97.219"
       orientation="1,0"
       id="guide4170" />
    <sodipodi:guide
       position="423.15668,29.844804"
       orientation="1,0"
       id="guide4212" />
  </sodipodi:namedview>
  <g
     id="Group">
    <g
       id="Layer 1" />
    <path
       style="color:#000000;font-style:normal;font-variant:normal;font-weight:normal;font-stretch:normal;font-size:medium;line-height:normal;font-family:sans-serif;text-indent:0;text-align:start;text-decoration:none;text-decoration-line:none;text-decoration-style:solid;text-decoration-color:#000000;letter-spacing:normal;word-spacing:normal;text-transform:none;direction:ltr;block-progression:tb;writing-mode:lr-tb;baseline-shift:baseline;text-anchor:start;white-space:normal;clip-rule:nonzero;display:inline;overflow:visible;visibility:visible;opacity:1;isolation:auto;mix-blend-mode:normal;color-interpolation:sRGB;color-interpolation-filters:linearRGB;solid-color:#000000;solid-opacity:1;fill:#000000;fill-opacity:1;fill-rule:evenodd;stroke:none;stroke-width:8;stroke-linecap:round;stroke-linejoin:round;stroke-miterlimit:4;stroke-dasharray:none;stroke-dashoffset:0;stroke-opacity:1;color-rendering:auto;image-rendering:auto;shape-rendering:auto;text-rendering:auto;enable-background:accumulate"
       d="m 164.65722,73.420496 c -2.84792,-2.080543 -6.61765,-2.401369 -9.7762,-0.83201 L 98.768968,100.47255 c -8.466853,4.20158 -6.198356,16.85703 3.200722,17.85613 l 14.47923,1.5459 c -9.73171,10.49136 -31.346427,32.45404 -31.346427,32.45404 0,0 -7.571912,10.4458 1.603812,17.77522 7.819685,6.24624 17.907385,-0.77712 17.907385,-0.77712 0,0 18.46982,-25.78378 27.31312,-37.07358 l 4.69048,13.78542 c 3.0458,8.941 15.87848,8.37086 18.11937,-0.80502 L 169.6061,84.364959 c 0.84171,-3.45167 -0.32436,-7.083722 -3.01799,-9.400371 -0.30315,-0.25679 -0.6222,-0.4942 -0.95525,-0.710816 -0.30589,-0.299539 -0.63178,-0.577938 -0.97543,-0.833272 z"
       id="path4214"
       inkscape:connector-curvature="0"
       sodipodi:nodetypes="ccccccsccccccccc" />
    <path
       style="color:#000000;font-style:normal;font-variant:normal;font-weight:normal;font-stretch:normal;font-size:medium;line-height:normal;font-family:sans-serif;text-indent:0;text-align:start;text-decoration:none;text-decoration-line:none;text-decoration-style:solid;text-decoration-color:#000000;letter-spacing:normal;word-spacing:normal;text-transform:none;direction:ltr;block-progression:tb;writing-mode:lr-tb;baseline-shift:baseline;text-anchor:start;white-space:normal;clip-rule:nonzero;display:inline;overflow:visible;visibility:visible;opacity:1;isolation:auto;mix-blend-mode:normal;color-interpolation:sRGB;color-interpolation-filters:linearRGB;solid-color:#000000;solid-opacity:1;fill:#000000;fill-opacity:1;fill-rule:nonzero;stroke:none;stroke-width:10;stroke-linecap:round;stroke-linejoin:round;stroke-miterlimit:4;stroke-dasharray:none;stroke-dashoffset:0;stroke-opacity:1;color-rendering:auto;image-rendering:auto;shape-rendering:auto;text-rendering:auto;enable-background:accumulate"
       d="M 8.6777344 0.26757812 C 4.4187004 0.26757812 0.83398438 3.8522941 0.83398438 8.1113281 L 0.83398438 45.205078 C 0.83398438 49.464113 4.4187004 53.048828 8.6777344 53.048828 L 20.617188 53.048828 L 20.617188 116.80078 L 8.3300781 116.80078 C 4.0710441 116.80078 0.48632812 120.3855 0.48632812 124.64453 L 0.48632812 161.73633 C 0.48632812 165.99536 4.0710441 169.58008 8.3300781 169.58008 L 45.421875 169.58008 C 49.680909 169.58008 53.265625 165.99536 53.265625 161.73633 L 53.265625 124.64453 C 53.265625 120.3855 49.680909 116.80078 45.421875 116.80078 L 35.617188 116.80078 L 35.617188 53.048828 L 45.769531 53.048828 C 50.028566 53.048828 53.613281 49.464113 53.613281 45.205078 L 53.613281 33.957031 L 118.06055 33.957031 L 118.06055 45.205078 C 118.06055 49.464113 121.64526 53.048828 125.9043 53.048828 L 162.99609 53.048828 C 167.25513 53.048828 170.83984 49.464113 170.83984 45.205078 L 170.83984 8.1113281 C 170.83984 3.8522941 167.25513 0.26757812 162.99609 0.26757812 L 125.9043 0.26757812 C 121.64526 0.26757812 118.06055 3.8522941 118.06055 8.1113281 L 118.06055 18.957031 L 53.613281 18.957031 L 53.613281 8.1113281 C 53.613281 3.8522941 50.028566 0.26757812 45.769531 0.26757812 L 8.6777344 0.26757812 z M 10.833984 10.267578 L 43.613281 10.267578 L 43.613281 43.048828 L 10.833984 43.048828 L 10.833984 10.267578 z M 128.06055 10.267578 L 160.83984 10.267578 L 160.83984 43.048828 L 128.06055 43.048828 L 128.06055 10.267578 z M 10.486328 126.80078 L 43.265625 126.80078 L 43.265625 159.58008 L 10.486328 159.58008 L 10.486328 126.80078 z "
       transform="translate(15,15)"
       id="rect4228" />
  </g>
</svg>
