<svg xmlns:i="&amp;ns_ai;" xmlns="http://www.w3.org/2000/svg" xmlns:xlink="http://www.w3.org/1999/xlink" viewBox="0 0 54 21" height="21" width="54"><switch transform="translate(-.52 -1) scale(.11104)"><g i:extraneous="self"><path clip-rule="evenodd" fill="gray" fill-rule="evenodd" d="M173.663 20.05h3.367v169.505h-3.367z"/><path d="M209.546 110.078V52.691h8.7v8.051c1.801-2.81 4.196-5.07 7.187-6.782 2.99-1.71 6.394-2.566 10.213-2.566 4.25 0 7.736.883 10.456 2.647 2.72 1.766 4.638 4.233 5.755 7.403 4.539-6.701 10.447-10.051 17.725-10.051 5.691 0 10.068 1.576 13.131 4.728 3.062 3.153 4.593 8.007 4.593 14.563v39.393h-9.673v-36.15c0-3.891-.315-6.691-.945-8.403-.631-1.71-1.774-3.088-3.432-4.134-1.657-1.044-3.603-1.567-5.836-1.567-4.035 0-7.385 1.342-10.051 4.026-2.666 2.684-3.999 6.98-3.999 12.888v33.341h-9.726V72.792c0-4.323-.793-7.565-2.378-9.727s-4.179-3.242-7.781-3.242a14.14 14.14 0 0 0-7.592 2.161c-2.323 1.441-4.008 3.549-5.052 6.323-1.045 2.774-1.567 6.773-1.567 11.996v29.774h-9.728zm129.636-7.079c-3.604 3.062-7.071 5.224-10.402 6.484-3.333 1.261-6.908 1.892-10.727 1.892-6.305 0-11.15-1.54-14.536-4.62-3.387-3.08-5.079-7.016-5.079-11.807 0-2.81.639-5.377 1.918-7.7 1.278-2.324 2.953-4.188 5.025-5.593 2.071-1.405 4.404-2.467 6.998-3.188 1.909-.504 4.791-.99 8.646-1.459 7.854-.936 13.636-2.053 17.347-3.35.035-1.333.054-2.179.054-2.54 0-3.962-.919-6.754-2.756-8.375-2.486-2.197-6.179-3.296-11.078-3.296-4.575 0-7.952.802-10.132 2.405-2.18 1.604-3.792 4.44-4.836 8.511l-9.511-1.297c.864-4.07 2.287-7.357 4.269-9.862 1.981-2.503 4.845-4.431 8.593-5.782 3.746-1.351 8.087-2.026 13.022-2.026 4.898 0 8.88.577 11.942 1.729 3.062 1.153 5.313 2.603 6.755 4.35 1.44 1.748 2.449 3.954 3.025 6.62.324 1.657.486 4.647.486 8.97v12.969c0 9.042.207 14.761.622 17.157.413 2.396 1.233 4.692 2.458 6.89h-10.158c-1.01-2.02-1.658-4.38-1.945-7.082zm-.811-21.723c-3.531 1.441-8.827 2.667-15.888 3.674-3.998.577-6.827 1.225-8.483 1.945-1.657.721-2.937 1.775-3.837 3.162-.9 1.387-1.351 2.927-1.351 4.62 0 2.594.981 4.755 2.945 6.484 1.963 1.729 4.836 2.594 8.618 2.594 3.747 0 7.079-.819 9.997-2.459 2.918-1.639 5.061-3.881 6.431-6.728 1.044-2.197 1.567-5.439 1.567-9.727v-3.565zm24.91 50.795v-79.38h8.862v7.457c2.089-2.918 4.448-5.106 7.079-6.565 2.629-1.459 5.817-2.188 9.564-2.188 4.898 0 9.222 1.261 12.969 3.782 3.746 2.522 6.574 6.079 8.483 10.672 1.909 4.593 2.864 9.628 2.864 15.104 0 5.872-1.054 11.159-3.161 15.86-2.107 4.701-5.17 8.304-9.187 10.807-4.018 2.504-8.24 3.756-12.672 3.756-3.242 0-6.151-.685-8.727-2.054-2.576-1.368-4.692-3.098-6.35-5.187v27.937h-9.724zm8.809-50.363c0 7.386 1.494 12.843 4.484 16.374 2.99 3.531 6.61 5.295 10.861 5.295 4.323 0 8.024-1.828 11.105-5.485 3.08-3.656 4.62-9.321 4.62-16.995 0-7.312-1.505-12.788-4.513-16.427-3.008-3.638-6.602-5.458-10.78-5.458-4.144 0-7.809 1.937-10.996 5.809-3.187 3.874-4.781 9.503-4.781 16.887zM418.187 110.078l20.696-29.558-19.832-27.829h18.535l10.159 15.779 10.699-15.779h17.832l-19.453 27.181 21.236 30.207h-18.643L447.745 92.3l-11.78 17.778h-17.778z" fill="#15b0f8"/><g opacity=".2"><defs><path id="b" d="M26.047 187.665h92.919v8.665H26.047z"/></defs><clipPath id="c"><use height="100%" width="100%" overflow="visible" xlink:href="#b"/></clipPath><path d="M72.506 187.665c25.659 0 46.46 1.938 46.46 4.333 0 2.393-20.801 4.332-46.46 4.332-25.659 0-46.459-1.939-46.459-4.332 0-2.394 20.801-4.333 46.459-4.333" clip-path="url(#c)" clip-rule="evenodd" fill-rule="evenodd"/></g><g fill="#15b0f8"><path d="M92.816 44.662c-5.782-3.969-12.783-6.293-20.352-6.293a35.79 35.79 0 0 0-20.324 6.293l20.324 20.353 20.352-20.353zm-50.058 9.383c-3.969 5.783-6.293 12.784-6.293 20.353 0 7.54 2.324 14.542 6.293 20.353L63.11 74.398 42.758 54.045zm59.441 0L81.848 74.397 102.2 94.75a35.955 35.955 0 0 0 6.293-20.353c-.001-7.568-2.325-14.569-6.294-20.352zm-50.058 50.059c5.781 3.997 12.783 6.321 20.324 6.321 7.568 0 14.569-2.324 20.352-6.321L72.465 83.752l-20.324 20.352z"/><path d="M21.441 107.96c-6.577-9.978-10.035-21.6-10.035-33.562 0-33.761 27.354-61.114 61.115-61.114 33.732 0 61.086 27.354 61.086 61.114 0 11.963-3.458 23.585-10.035 33.562-3.373 5.527-7.171 10.771-10.686 16.214l-.029.028-40.336 58.422-40.338-58.422-.027-.028c-3.515-5.443-7.314-10.687-10.715-16.214zm51.08-82.856c27.212 0 49.266 22.082 49.266 49.294 0 27.213-22.054 49.267-49.266 49.267-27.213 0-49.295-22.054-49.295-49.267.001-27.212 22.083-49.294 49.295-49.294z" clip-rule="evenodd" fill-rule="evenodd"/></g></g></switch></svg>