<svg
  xmlns="http://www.w3.org/2000/svg"
  style="isolation:isolate"
  viewBox="15 15 170 170"
  width="170"
  height="170"
>
  <path
    d="M89.135 31.658a3.5 3.5 0 0 0-3.17 2.123l-58.46 136.676a3.5 3.5 0 0 0 3.23 4.875l146.349-.402a3.5 3.5 0 0 0 3.238-4.803L137.99 64.497a3.5 3.5 0 0 0-.847-1.243l-28.625-27.012a3.5 3.5 0 0 0-1.668-.877l-16.934-3.629a3.5 3.5 0 0 0-.781-.078zm2.133 7.526l13.158 2.82 27.353 25.812 12.764 31.848-19.88 10.484-24.595 3.225-36.654-9.068 27.854-65.121z"
    color="#000"
    overflow="visible"
  />
</svg>

