<?xml version="1.0" encoding="UTF-8" standalone="no"?>
<svg
   style="isolation:isolate"
   viewBox="15 15 170 170"
   width="170"
   height="170"
   version="1.1"
   id="svg367"
   sodipodi:docname="water.svg"
   inkscape:version="1.2.1 (9c6d41e, 2022-07-14)"
   xmlns:inkscape="http://www.inkscape.org/namespaces/inkscape"
   xmlns:sodipodi="http://sodipodi.sourceforge.net/DTD/sodipodi-0.dtd"
   xmlns="http://www.w3.org/2000/svg"
   xmlns:svg="http://www.w3.org/2000/svg">
  <defs
     id="defs371" />
  <sodipodi:namedview
     id="namedview369"
     pagecolor="#ffffff"
     bordercolor="#666666"
     borderopacity="1.0"
     inkscape:showpageshadow="2"
     inkscape:pageopacity="0.0"
     inkscape:pagecheckerboard="0"
     inkscape:deskcolor="#d1d1d1"
     showgrid="false"
     inkscape:zoom="1.3882353"
     inkscape:cx="57.266949"
     inkscape:cy="84.639831"
     inkscape:window-width="1728"
     inkscape:window-height="1051"
     inkscape:window-x="459"
     inkscape:window-y="1478"
     inkscape:window-maximized="1"
     inkscape:current-layer="g307" />
  <g
     style="isolation:isolate;stroke:#000000"
     id="g365"
     transform="matrix(1.7395611,0,0,1.7395611,-73.95611,-70.536801)">
    <g
       style="stroke-width:1.2;fill:#000000;fill-opacity:1;stroke:#000000;stroke-opacity:1"
       id="g319"
       transform="translate(23.0215,2.1610169)">
      <g
         style="stroke-width:1.32292;fill:#000000;fill-opacity:1;stroke:#000000;stroke-opacity:1"
         id="g307">
        <path
           id="path299"
           style="color:#000000;fill:#000000;fill-opacity:1;stroke:none;stroke-width:3.25252;stroke-linecap:round;stroke-linejoin:round;stroke-opacity:1"
           d="m 45.468978,52.210998 c -5.366136,0.143678 -10.681906,3.29067 -12.878496,8.276189 -1.105703,2.493727 -1.722927,5.332609 -1.252365,8.046754 0.663886,2.809815 4.183581,4.363102 6.700631,2.952545 1.82016,-0.884577 2.723873,-2.972227 2.552665,-4.928201 -0.03588,-2.256973 1.67543,-4.25589 3.85505,-4.7291 2.711025,-0.763982 6.2606,0.475629 6.998745,3.413945 0.395301,1.927169 0.08787,3.93866 0.694989,5.844366 1.108118,4.837564 4.927713,8.892684 9.688069,10.294781 6.07138,1.966626 13.448507,-0.07719 17.085841,-5.467268 1.914991,-2.695502 2.667468,-6.033226 2.692959,-9.298139 0.0911,-2.412736 2.177502,-4.361639 4.525217,-4.60515 2.667322,-0.484442 5.862591,1.042815 6.357262,3.884858 0.301665,2.274477 0.181349,4.63266 1.03023,6.813961 1.490972,4.73061 5.718024,8.328941 10.538155,9.332083 5.96295,1.399024 12.84922,-0.923122 16.15285,-6.220612 1.75457,-2.828334 2.66011,-6.28696 2.19612,-9.603063 -0.58439,-2.774732 -3.96695,-4.448252 -6.50762,-3.157171 -1.96138,0.809551 -2.93551,3.008946 -2.77821,5.044229 0.019,2.224617 -1.6587,4.20618 -3.81193,4.682912 -2.71231,0.787697 -6.28657,-0.439951 -7.03541,-3.385312 -0.4002,-1.887918 -0.0943,-3.858415 -0.66592,-5.731942 -1.06546,-4.798651 -4.775502,-8.870264 -9.47143,-10.34026 -6.122716,-2.103373 -13.649325,-0.07654 -17.340218,5.38831 -1.917716,2.707623 -2.665448,6.05464 -2.693949,9.330189 -0.09997,2.49528 -2.347046,4.440834 -4.766061,4.601449 C 64.682455,73.038357 61.592313,71.4176 61.199428,68.592916 60.940727,66.31948 61.010354,63.969708 60.153355,61.798783 58.620907,57.086308 54.369081,53.535045 49.548963,52.563591 48.210634,52.276639 46.836517,52.161989 45.468978,52.210998 Z m 0,29.660484 c -5.366756,0.141818 -10.679345,3.28991 -12.878496,8.273671 -1.105842,2.493813 -1.722147,5.332454 -1.252802,8.046878 0.656332,2.757099 4.064252,4.323929 6.57838,3.015549 1.891385,-0.85128 2.855497,-2.988209 2.675181,-4.991339 -0.0255,-2.188724 1.57861,-4.170431 3.695831,-4.679931 2.697905,-0.833178 6.277664,0.315581 7.120551,3.227422 0.461735,1.922652 0.101465,3.943999 0.701616,5.856558 1.067242,4.84552 4.845846,8.94082 9.596487,10.37981 6.096173,2.03349 13.547251,-5.4e-4 17.210899,-5.42711 1.920725,-2.70857 2.66937,-6.057909 2.69548,-9.335932 0.100901,-2.452326 2.275579,-4.387702 4.655611,-4.586467 2.637477,-0.424177 5.751695,1.113416 6.224349,3.916545 0.300121,2.226845 0.173559,4.534754 0.986523,6.676654 1.439788,4.6981 5.562362,8.3283 10.328312,9.39516 5.97968,1.50237 12.96064,-0.7455 16.33237,-6.0542 1.81247,-2.84377 2.72738,-6.350189 2.27269,-9.707838 -0.58428,-2.725018 -3.86047,-4.411172 -6.39436,-3.210949 -2.02695,0.768525 -3.05707,3.011672 -2.89644,5.087938 0.0316,2.285709 -1.74244,4.291989 -3.95421,4.725859 -2.72453,0.73627 -6.26473,-0.58205 -6.92619,-3.545369 -0.34238,-1.89578 -0.0809,-3.861841 -0.66381,-5.732485 -1.10435,-4.791515 -4.856197,-8.824191 -9.562848,-10.255988 -6.05737,-2.011727 -13.450072,-0.0356 -17.140698,5.319873 -1.974148,2.725847 -2.746148,6.123201 -2.771191,9.44459 -0.10051,2.452639 -2.275147,4.388819 -4.655609,4.586479 -2.637129,0.42269 -5.752023,-1.11341 -6.22435,-3.916549 -0.299969,-2.226909 -0.173337,-4.534907 -0.986523,-6.676658 -1.450274,-4.741337 -5.637455,-8.389658 -10.453829,-9.424712 -1.410251,-0.330358 -2.866011,-0.460765 -4.312924,-0.407459 z m 0,29.655448 c -5.366824,0.14281 -10.678782,3.29322 -12.878496,8.27618 -1.105703,2.49374 -1.722927,5.33261 -1.252365,8.04677 0.659487,2.75951 4.075282,4.32657 6.589926,3.00939 1.881298,-0.85988 2.845486,-2.98641 2.663456,-4.98757 -0.03512,-2.24568 1.661339,-4.24013 3.829391,-4.71876 2.710114,-0.77763 6.271033,0.45262 7.019701,3.3909 0.404154,1.93106 0.0894,3.94902 0.699606,5.85959 1.108843,4.83741 4.927889,8.89212 9.688069,10.29478 6.071954,1.96725 13.447204,-0.0784 17.086528,-5.4668 1.923184,-2.70733 2.670138,-6.05845 2.697311,-9.33638 0.09941,-2.50327 2.359914,-4.44542 4.783496,-4.60549 2.652706,-0.37696 5.730944,1.24682 6.122048,4.06999 0.252214,2.27082 0.189097,4.61642 1.043314,6.7841 1.562793,4.81963 5.97594,8.41748 10.923267,9.29828 5.8941,1.21728 12.58946,-1.17227 15.78951,-6.4047 1.70941,-2.80988 2.58785,-6.22262 2.13822,-9.49983 -0.57931,-2.7302 -3.85659,-4.40871 -6.39225,-3.21695 -1.96932,0.75276 -3.04632,2.9201 -2.89216,4.96013 0.0588,2.18055 -1.47608,4.20796 -3.5875,4.75195 -2.75029,0.92072 -6.48387,-0.28345 -7.26394,-3.30791 -0.40684,-1.93299 -0.0915,-3.95388 -0.702,-5.86717 -1.1075,-4.83808 -4.927511,-8.89281 -9.688058,-10.29478 -6.07222,-1.96675 -13.449456,0.0776 -17.08836,5.46727 -1.920302,2.70858 -2.669369,6.05799 -2.695479,9.33592 -0.100912,2.45243 -2.276481,4.38768 -4.655609,4.58898 -2.638011,0.42479 -5.750858,-1.11686 -6.22435,-3.91906 -0.300082,-2.22685 -0.173774,-4.53473 -0.986523,-6.67666 -1.45242,-4.74062 -5.638844,-8.38611 -10.453829,-9.42472 -1.409964,-0.33152 -2.866339,-0.45757 -4.312924,-0.40745 z" />
        <g
           id="g305"
           style="fill:#000000;fill-opacity:1;stroke:#000000;stroke-opacity:1" />
      </g>
    </g>
    <g
       style="stroke-width:1.32292"
       id="g341"
       transform="translate(23.0215,2.1610169)">
      <g
         id="g329">
        <g
           id="g323" />
        <g
           id="g327" />
      </g>
    </g>
    <g
       style="stroke-width:1.32292"
       id="g363">
      <g
         id="g351"
         transform="translate(23.0215,2.1610169)">
        <g
           id="g345" />
        <g
           id="g349" />
      </g>
    </g>
  </g>
</svg>
