<svg xmlns="http://www.w3.org/2000/svg" style="isolation:isolate" viewBox="15 15 170 170" width="170" height="170"><g style="isolation:isolate;stroke:#000;stroke-opacity:1"><g style="stroke:#000;stroke-width:1.2;stroke-miterlimit:4;stroke-dasharray:none;stroke-opacity:1"><g style="stroke:#000;stroke-width:1.32292;stroke-miterlimit:4;stroke-dasharray:none;stroke-opacity:1"><g style="stroke:#000;stroke-width:1.32292;stroke-miterlimit:4;stroke-dasharray:none;stroke-opacity:1"><path style="fill:none;stroke:#000;stroke-width:2.62239;stroke-linecap:round;stroke-linejoin:round;stroke-miterlimit:4;stroke-dasharray:none;stroke-opacity:1" d="M88.49 81.24a4.168 4.168 0 1 1 8.335 0m8.335 0a4.168 4.168 0 0 1-8.335 0" transform="matrix(1.90666 0 0 1.90666 -123.527 -79.76)"/></g><g style="stroke:#000;stroke-width:1.32292;stroke-miterlimit:4;stroke-dasharray:none;stroke-opacity:1"><path style="fill:none;stroke:#000;stroke-width:2.62239;stroke-linecap:round;stroke-linejoin:round;stroke-miterlimit:4;stroke-dasharray:none;stroke-opacity:1" d="M88.49 81.24a4.168 4.168 0 1 1 8.335 0m8.335 0a4.168 4.168 0 0 1-8.335 0" transform="matrix(-1.90666 0 0 -1.90666 277.484 230.036)"/></g></g><g style="stroke:#000;stroke-width:1.2;stroke-miterlimit:4;stroke-dasharray:none;stroke-opacity:1"><g style="stroke:#000;stroke-width:1.32292;stroke-miterlimit:4;stroke-dasharray:none;stroke-opacity:1"><path style="fill:none;stroke:#000;stroke-width:2.62239;stroke-linecap:round;stroke-linejoin:round;stroke-miterlimit:4;stroke-dasharray:none;stroke-opacity:1" d="M88.49 81.24a4.168 4.168 0 1 1 8.335 0m8.335 0a4.168 4.168 0 0 1-8.335 0" transform="matrix(1.90666 0 0 -1.90666 -75.849 230.036)"/></g><g style="stroke:#000;stroke-width:1.2;stroke-miterlimit:4;stroke-dasharray:none;stroke-opacity:1"><path style="fill:none;stroke:#000;stroke-width:2.62239;stroke-linecap:round;stroke-linejoin:round;stroke-miterlimit:4;stroke-dasharray:none;stroke-opacity:1" d="M88.49 81.24a4.168 4.168 0 1 1 8.335 0m8.335 0a4.168 4.168 0 0 1-8.335 0" transform="matrix(-1.90666 0 0 1.90666 325.163 -79.76)"/></g></g></g><g style="stroke:#000;stroke-width:1.32292;stroke-miterlimit:4;stroke-dasharray:none;stroke-opacity:1"><g style="stroke:#000;stroke-width:1.32292;stroke-miterlimit:4;stroke-dasharray:none;stroke-opacity:1"><g style="stroke:#000;stroke-width:1.32292;stroke-miterlimit:4;stroke-dasharray:none;stroke-opacity:1"><path style="fill:none;stroke:#000;stroke-width:2.62239;stroke-linecap:round;stroke-linejoin:round;stroke-miterlimit:4;stroke-dasharray:none;stroke-opacity:1" d="M88.49 81.24a4.168 4.168 0 1 1 8.335 0m8.335 0a4.168 4.168 0 0 1-8.335 0" transform="matrix(1.90666 0 0 1.90666 -123.527 -56.759)"/></g><g style="stroke:#000;stroke-width:1.32292;stroke-miterlimit:4;stroke-dasharray:none;stroke-opacity:1"><path style="fill:none;stroke:#000;stroke-width:2.62239;stroke-linecap:round;stroke-linejoin:round;stroke-miterlimit:4;stroke-dasharray:none;stroke-opacity:1" d="M88.49 81.24a4.168 4.168 0 1 1 8.335 0m8.335 0a4.168 4.168 0 0 1-8.335 0" transform="matrix(-1.90666 0 0 -1.90666 277.484 253.034)"/></g></g><g style="stroke:#000;stroke-width:1.32292;stroke-miterlimit:4;stroke-dasharray:none;stroke-opacity:1"><g style="stroke:#000;stroke-width:1.32292;stroke-miterlimit:4;stroke-dasharray:none;stroke-opacity:1"><path style="fill:none;stroke:#000;stroke-width:2.62239;stroke-linecap:round;stroke-linejoin:round;stroke-miterlimit:4;stroke-dasharray:none;stroke-opacity:1" d="M88.49 81.24a4.168 4.168 0 1 1 8.335 0m8.335 0a4.168 4.168 0 0 1-8.335 0" transform="matrix(1.90666 0 0 -1.90666 -75.849 253.034)"/></g><g style="stroke:#000;stroke-width:1.32292;stroke-miterlimit:4;stroke-dasharray:none;stroke-opacity:1"><path style="fill:none;stroke:#000;stroke-width:2.62239;stroke-linecap:round;stroke-linejoin:round;stroke-miterlimit:4;stroke-dasharray:none;stroke-opacity:1" d="M88.49 81.24a4.168 4.168 0 1 1 8.335 0m8.335 0a4.168 4.168 0 0 1-8.335 0" transform="matrix(-1.90666 0 0 1.90666 325.163 -56.759)"/></g></g></g><g style="stroke:#000;stroke-width:1.32292;stroke-miterlimit:4;stroke-dasharray:none;stroke-opacity:1"><g style="stroke:#000;stroke-width:1.32292;stroke-miterlimit:4;stroke-dasharray:none;stroke-opacity:1"><g style="stroke:#000;stroke-width:1.32292;stroke-miterlimit:4;stroke-dasharray:none;stroke-opacity:1"><path style="fill:none;stroke:#000;stroke-width:2.62239;stroke-linecap:round;stroke-linejoin:round;stroke-miterlimit:4;stroke-dasharray:none;stroke-opacity:1" d="M88.49 81.24a4.168 4.168 0 1 1 8.335 0m8.335 0a4.168 4.168 0 0 1-8.335 0" transform="matrix(1.90666 0 0 1.90666 -123.527 -33.76)"/></g><g style="stroke:#000;stroke-width:1.32292;stroke-miterlimit:4;stroke-dasharray:none;stroke-opacity:1"><path style="fill:none;stroke:#000;stroke-width:2.62239;stroke-linecap:round;stroke-linejoin:round;stroke-miterlimit:4;stroke-dasharray:none;stroke-opacity:1" d="M88.49 81.24a4.168 4.168 0 1 1 8.335 0m8.335 0a4.168 4.168 0 0 1-8.335 0" transform="matrix(-1.90666 0 0 -1.90666 277.484 276.033)"/></g></g><g style="stroke:#000;stroke-width:1.32292;stroke-miterlimit:4;stroke-dasharray:none;stroke-opacity:1"><g style="stroke:#000;stroke-width:1.32292;stroke-miterlimit:4;stroke-dasharray:none;stroke-opacity:1"><path style="fill:none;stroke:#000;stroke-width:2.62239;stroke-linecap:round;stroke-linejoin:round;stroke-miterlimit:4;stroke-dasharray:none;stroke-opacity:1" d="M88.49 81.24a4.168 4.168 0 1 1 8.335 0m8.335 0a4.168 4.168 0 0 1-8.335 0" transform="matrix(1.90666 0 0 -1.90666 -75.849 276.033)"/></g><g style="stroke:#000;stroke-width:1.32292;stroke-miterlimit:4;stroke-dasharray:none;stroke-opacity:1"><path style="fill:none;stroke:#000;stroke-width:2.62239;stroke-linecap:round;stroke-linejoin:round;stroke-miterlimit:4;stroke-dasharray:none;stroke-opacity:1" d="M88.49 81.24a4.168 4.168 0 1 1 8.335 0m8.335 0a4.168 4.168 0 0 1-8.335 0" transform="matrix(-1.90666 0 0 1.90666 325.163 -33.76)"/></g></g></g></g></svg>